<?xml version="1.0" encoding="UTF-8"?>
<svg xmlns="http://www.w3.org/2000/svg" xmlns:xlink="http://www.w3.org/1999/xlink" width="320px" height="320px" viewBox="0 0 320 320" version="1.1">
<g id="surface1">
<path style=" stroke:none;fill-rule:nonzero;fill:rgb(100%,100%,100%);fill-opacity:1;" d="M 256.757812 38.351562 C 268 40 268 40 276 48 C 277 62 277 62 276 76 C 273.359375 78.640625 270.71875 81.28125 268 84 C 264.039062 84 260.078125 84 256 84 C 257.320312 74.761719 258.640625 65.519531 260 56 C 243.667969 58.117188 236.226562 66.386719 224.9375 77.890625 C 221.378906 81.488281 217.820312 85.082031 214.15625 88.789062 C 210.476562 92.570312 206.792969 96.351562 203 100.25 C 199.222656 104.089844 195.441406 107.925781 191.65625 111.757812 C 182.410156 121.144531 173.191406 130.558594 164 140 C 165.320312 142.640625 166.640625 145.28125 168 148 C 177.238281 146.679688 186.480469 145.359375 196 144 C 194.679688 151.921875 193.359375 159.839844 192 168 C 203.878906 169.980469 203.878906 169.980469 216 172 C 216 174.640625 216 177.28125 216 180 C 210.253906 180.324219 204.503906 180.558594 198.75 180.75 C 193.945312 180.957031 193.945312 180.957031 189.046875 181.171875 C 178.085938 179.753906 174.832031 176.425781 168 168 C 162.058594 169.980469 162.058594 169.980469 156 172 C 157.980469 174.96875 159.960938 177.941406 162 181 C 171.816406 200.726562 170.617188 222.597656 168 244 C 158.929688 263.539062 147.539062 274.929688 128 284 C 105.601562 287.015625 86.660156 287.09375 66 277.5 C 46.742188 259.207031 38.992188 246.765625 38 220 C 38.761719 199.53125 41.488281 187.277344 56 172 C 72.945312 158.066406 86.066406 152.742188 108 152 C 120.210938 153.96875 132.074219 156.726562 144 160 C 145.136719 148.328125 145.136719 148.328125 139.5 141.5 C 129.414062 134.105469 120.265625 133.363281 108 132 C 108 129.359375 108 126.71875 108 124 C 125.332031 124 142.667969 124 160 124 C 169.644531 116.179688 169.644531 116.179688 179.09375 105.625 C 182.722656 101.835938 186.355469 98.046875 190.09375 94.140625 C 195.808594 88.074219 201.507812 81.992188 207.179688 75.886719 C 212.679688 70 218.261719 64.1875 223.84375 58.375 C 227.136719 54.855469 230.425781 51.335938 233.820312 47.710938 C 244 40 244 40 256.757812 38.351562 Z M 56 192 C 48.484375 207.027344 49.34375 223.679688 52 240 C 60 253.734375 69.695312 264.847656 84 272 C 101.207031 274.484375 117.335938 275.882812 132.71875 266.921875 C 145.035156 256.417969 154.835938 248.054688 157.234375 231.453125 C 158.238281 211.609375 157.714844 199.25 144.5 183.75 C 131.925781 170.839844 123.265625 167.160156 105.25 166.25 C 82.4375 166.347656 70.464844 174.921875 56 192 Z M 56 192 "/>
<path style=" stroke:none;fill-rule:nonzero;fill:rgb(100%,100%,100%);fill-opacity:1;" d="M 92 208 C 99.921875 208 107.839844 208 116 208 C 116 215.921875 116 223.839844 116 232 C 108.078125 232 100.160156 232 92 232 C 87.5 217 87.5 217 92 208 Z M 92 208 "/>
<path style=" stroke:none;fill-rule:nonzero;fill:rgb(100%,100%,100%);fill-opacity:1;" d="M 220 108 C 223.960938 108 227.921875 108 232 108 C 232 111.960938 232 115.921875 232 120 C 228.039062 120 224.078125 120 220 120 C 220 116.039062 220 112.078125 220 108 Z M 220 108 "/>
<path style=" stroke:none;fill-rule:nonzero;fill:rgb(100%,100%,100%);fill-opacity:1;" d="M 232 96 C 235.960938 96 239.921875 96 244 96 C 244 99.960938 244 103.921875 244 108 C 240.039062 108 236.078125 108 232 108 C 232 104.039062 232 100.078125 232 96 Z M 232 96 "/>
<path style=" stroke:none;fill-rule:nonzero;fill:rgb(100%,100%,100%);fill-opacity:1;" d="M 196 132 C 199.960938 132 203.921875 132 208 132 C 208 135.960938 208 139.921875 208 144 C 204.039062 142.679688 200.078125 141.359375 196 140 C 196 137.359375 196 134.71875 196 132 Z M 196 132 "/>
<path style=" stroke:none;fill-rule:nonzero;fill:rgb(100%,100%,100%);fill-opacity:1;" d="M 208 120 C 211.960938 120 215.921875 120 220 120 C 220 123.960938 220 127.921875 220 132 C 216.039062 130.679688 212.078125 129.359375 208 128 C 208 125.359375 208 122.71875 208 120 Z M 208 120 "/>
<path style=" stroke:none;fill-rule:nonzero;fill:rgb(100%,100%,100%);fill-opacity:1;" d="M 244 84 C 247.960938 85.320312 251.921875 86.640625 256 88 C 256 90.640625 256 93.28125 256 96 C 252.039062 96 248.078125 96 244 96 C 244 92.039062 244 88.078125 244 84 Z M 244 84 "/>
</g>
</svg>
