<?xml version="1.0" encoding="UTF-8"?>
<svg xmlns="http://www.w3.org/2000/svg" xmlns:xlink="http://www.w3.org/1999/xlink" width="58px" height="58px" viewBox="0 0 58 58" version="1.1">
<g id="surface1">
<path style=" stroke:none;fill-rule:nonzero;fill:rgb(0%,0%,0%);fill-opacity:1;" d="M 28.734375 7.457031 C 28.691406 7.460938 28.558594 7.46875 28.433594 7.476562 C 28.3125 7.484375 28.078125 7.503906 27.917969 7.519531 C 23.714844 7.910156 19.679688 9.574219 16.214844 12.339844 C 15.703125 12.75 15.296875 13.125 14.46875 13.953125 C 13.695312 14.722656 13.546875 14.886719 13.078125 15.472656 C 11.664062 17.234375 10.523438 19.15625 9.734375 21.109375 C 8.957031 23.03125 8.453125 25.078125 8.238281 27.199219 C 8.140625 28.167969 8.113281 29.835938 8.183594 31.042969 C 8.292969 32.992188 8.84375 35.535156 9.578125 37.507812 C 10.476562 39.910156 11.929688 42.265625 13.6875 44.160156 C 16.164062 46.832031 18.800781 48.613281 22.144531 49.867188 C 24.398438 50.714844 26.382812 51.125 28.871094 51.257812 C 29.292969 51.28125 30.738281 51.28125 31.140625 51.257812 C 33.476562 51.125 35.503906 50.71875 37.542969 49.96875 C 40.746094 48.789062 43.488281 46.964844 45.902344 44.402344 C 47.625 42.574219 48.960938 40.53125 49.886719 38.316406 C 50.597656 36.613281 51.179688 34.414062 51.464844 32.382812 C 51.601562 31.394531 51.628906 30.835938 51.617188 29.289062 C 51.609375 28.015625 51.582031 27.464844 51.492188 26.769531 C 50.957031 22.535156 49.402344 18.816406 46.828125 15.625 C 45.882812 14.453125 44.949219 13.503906 43.8125 12.550781 C 42.859375 11.753906 41.957031 11.113281 40.898438 10.484375 C 38.320312 8.945312 35.546875 7.992188 32.566406 7.613281 C 32.082031 7.550781 31.664062 7.515625 30.902344 7.472656 C 30.644531 7.460938 28.894531 7.445312 28.734375 7.457031 Z M 30.855469 8.601562 C 31.816406 8.640625 32.136719 8.664062 32.585938 8.734375 C 35.117188 9.117188 36.824219 9.636719 38.832031 10.640625 C 40.460938 11.457031 41.804688 12.335938 43.117188 13.441406 C 43.914062 14.121094 44.742188 14.929688 45.4375 15.710938 C 47.976562 18.585938 49.566406 21.941406 50.222656 25.816406 C 50.601562 28.089844 50.621094 30.609375 50.269531 32.839844 C 49.914062 35.09375 49.269531 37.140625 48.316406 39.050781 C 47.808594 40.070312 47.308594 40.878906 46.648438 41.761719 C 45.449219 43.363281 43.832031 44.988281 42.265625 46.160156 C 39.539062 48.203125 36.597656 49.410156 33.007812 49.964844 C 32.070312 50.109375 31.617188 50.140625 30.308594 50.152344 C 28.957031 50.160156 28 50.121094 27.285156 50.015625 C 25.238281 49.722656 23.535156 49.269531 21.9375 48.597656 C 21.285156 48.324219 20.289062 47.84375 19.679688 47.511719 C 17.945312 46.558594 16.648438 45.566406 15.113281 44.015625 C 12.921875 41.800781 11.53125 39.640625 10.550781 36.921875 C 9.398438 33.738281 9.003906 30.34375 9.390625 27.015625 C 9.695312 24.425781 10.324219 22.257812 11.402344 20.101562 C 12.851562 17.207031 15.003906 14.613281 17.527344 12.71875 C 19.007812 11.609375 20.710938 10.660156 22.488281 9.949219 C 24.230469 9.253906 26.078125 8.820312 28.140625 8.617188 C 28.300781 8.601562 28.453125 8.585938 28.480469 8.585938 C 28.585938 8.574219 30.507812 8.589844 30.855469 8.601562 Z M 30.855469 8.601562 "/>
<path style=" stroke:none;fill-rule:nonzero;fill:rgb(0%,0%,0%);fill-opacity:1;" d="M 28.9375 9.433594 C 28.460938 9.464844 28.40625 9.519531 28.378906 10.023438 C 28.351562 10.554688 28.425781 13.035156 28.476562 13.261719 C 28.503906 13.394531 28.554688 13.460938 28.660156 13.503906 C 28.734375 13.539062 29.109375 13.542969 29.808594 13.527344 C 30.625 13.503906 30.746094 13.488281 31.050781 13.371094 C 31.242188 13.292969 31.347656 13.242188 31.492188 13.144531 C 31.875 12.898438 32.125 12.578125 32.257812 12.164062 C 32.339844 11.910156 32.355469 11.792969 32.355469 11.402344 L 32.355469 11.058594 L 32.3125 10.933594 C 32.261719 10.785156 32.140625 10.539062 32.054688 10.40625 C 31.667969 9.8125 31.054688 9.511719 30.058594 9.433594 C 29.859375 9.417969 29.191406 9.417969 28.9375 9.433594 Z M 29.820312 10.425781 C 30.324219 10.457031 30.519531 10.496094 30.71875 10.613281 C 31.046875 10.808594 31.222656 11.148438 31.203125 11.539062 C 31.179688 11.945312 30.945312 12.285156 30.582031 12.429688 C 30.460938 12.480469 30.257812 12.503906 29.867188 12.515625 L 29.507812 12.523438 L 29.507812 10.410156 L 29.554688 10.410156 C 29.578125 10.410156 29.699219 10.417969 29.820312 10.425781 Z M 29.820312 10.425781 "/>
<path style=" stroke:none;fill-rule:nonzero;fill:rgb(0%,0%,0%);fill-opacity:1;" d="M 25.007812 9.964844 C 24.347656 10.148438 22.921875 10.671875 22.773438 10.785156 C 22.75 10.804688 22.710938 10.851562 22.691406 10.894531 C 22.660156 10.957031 22.65625 10.980469 22.660156 11.046875 C 22.671875 11.171875 23 12.140625 23.410156 13.246094 C 23.71875 14.09375 23.863281 14.429688 23.949219 14.511719 C 24.074219 14.632812 24.230469 14.605469 25.328125 14.238281 C 26.148438 13.964844 26.582031 13.804688 26.683594 13.738281 C 26.882812 13.605469 26.773438 13.0625 26.523438 12.949219 C 26.472656 12.929688 26.453125 12.925781 26.371094 12.941406 C 26.21875 12.964844 25.929688 13.042969 25.53125 13.164062 C 24.90625 13.355469 24.726562 13.394531 24.664062 13.355469 C 24.597656 13.3125 24.492188 13.050781 24.492188 12.925781 C 24.492188 12.863281 24.496094 12.859375 24.554688 12.832031 C 24.65625 12.785156 24.808594 12.726562 25.085938 12.628906 C 25.402344 12.511719 25.625 12.425781 25.757812 12.359375 C 25.847656 12.3125 25.863281 12.300781 25.894531 12.234375 C 26.023438 11.984375 25.824219 11.554688 25.578125 11.554688 C 25.511719 11.554688 25.210938 11.636719 24.761719 11.78125 C 24.558594 11.847656 24.34375 11.914062 24.289062 11.929688 L 24.195312 11.953125 L 24.148438 11.910156 C 24.0625 11.824219 23.910156 11.53125 23.910156 11.453125 C 23.910156 11.40625 23.9375 11.386719 24.125 11.296875 C 24.359375 11.1875 24.679688 11.0625 25.089844 10.921875 C 25.476562 10.789062 25.542969 10.757812 25.621094 10.675781 C 25.699219 10.589844 25.71875 10.488281 25.691406 10.335938 C 25.640625 10.082031 25.496094 9.929688 25.28125 9.914062 C 25.222656 9.910156 25.160156 9.921875 25.007812 9.964844 Z M 25.007812 9.964844 "/>
<path style=" stroke:none;fill-rule:nonzero;fill:rgb(0%,0%,0%);fill-opacity:1;" d="M 35.476562 10.28125 C 35.398438 10.316406 35.367188 10.355469 35.292969 10.507812 C 35.207031 10.675781 35.136719 10.847656 34.921875 11.417969 C 34.832031 11.652344 34.671875 12.066406 34.566406 12.335938 C 34.269531 13.105469 34.0625 13.671875 34.042969 13.796875 C 34.023438 13.898438 34.101562 14.003906 34.265625 14.097656 C 34.414062 14.183594 34.8125 14.335938 35.394531 14.527344 C 36.019531 14.734375 36.121094 14.753906 36.554688 14.753906 C 36.800781 14.753906 36.894531 14.746094 36.984375 14.726562 C 37.480469 14.625 38.007812 14.226562 38.292969 13.742188 C 38.503906 13.382812 38.558594 13.132812 38.542969 12.613281 C 38.53125 12.242188 38.507812 12.136719 38.367188 11.871094 C 38.261719 11.660156 38.148438 11.503906 37.976562 11.335938 C 37.660156 11.019531 37.210938 10.773438 36.359375 10.457031 C 35.996094 10.320312 35.820312 10.273438 35.660156 10.265625 C 35.554688 10.261719 35.511719 10.265625 35.476562 10.28125 Z M 36.371094 11.535156 C 36.574219 11.617188 36.882812 11.78125 36.996094 11.863281 C 37.296875 12.089844 37.421875 12.359375 37.402344 12.761719 C 37.390625 12.96875 37.359375 13.066406 37.25 13.226562 C 37.097656 13.457031 36.902344 13.625 36.691406 13.703125 C 36.621094 13.730469 36.582031 13.734375 36.40625 13.734375 C 36.226562 13.734375 36.183594 13.730469 36.046875 13.695312 C 35.75 13.621094 35.4375 13.5 35.367188 13.429688 C 35.339844 13.402344 35.339844 13.402344 35.402344 13.222656 C 35.546875 12.796875 35.945312 11.777344 36.03125 11.605469 C 36.105469 11.453125 36.152344 11.445312 36.371094 11.535156 Z M 36.371094 11.535156 "/>
<path style=" stroke:none;fill-rule:nonzero;fill:rgb(0%,0%,0%);fill-opacity:1;" d="M 19.410156 12.484375 C 19.277344 12.511719 19.125 12.566406 18.984375 12.636719 C 18.625 12.816406 17.570312 13.535156 17.417969 13.699219 C 17.390625 13.730469 17.351562 13.792969 17.332031 13.832031 C 17.289062 13.933594 17.292969 14.058594 17.347656 14.160156 C 17.378906 14.222656 18.605469 15.851562 19 16.359375 C 19.246094 16.671875 19.472656 16.941406 19.585938 17.050781 L 19.683594 17.144531 L 19.78125 17.144531 C 19.863281 17.144531 19.890625 17.140625 19.984375 17.097656 C 20.222656 16.980469 20.394531 16.8125 20.441406 16.648438 C 20.453125 16.601562 20.449219 16.585938 20.410156 16.503906 C 20.351562 16.386719 20.203125 16.15625 20.007812 15.882812 C 19.734375 15.5 19.707031 15.433594 19.789062 15.359375 C 19.882812 15.273438 19.894531 15.273438 20.90625 15.589844 C 21.617188 15.808594 21.683594 15.820312 21.902344 15.714844 C 22.050781 15.644531 22.179688 15.554688 22.234375 15.484375 C 22.296875 15.40625 22.363281 15.257812 22.363281 15.195312 C 22.367188 15.128906 22.285156 15.007812 22.191406 14.9375 C 22.09375 14.863281 21.945312 14.8125 21.367188 14.644531 C 21.070312 14.5625 20.808594 14.480469 20.78125 14.472656 L 20.730469 14.449219 L 20.75 14.390625 C 20.757812 14.359375 20.789062 14.28125 20.816406 14.214844 C 20.878906 14.058594 20.90625 13.941406 20.90625 13.773438 C 20.90625 13.167969 20.511719 12.640625 19.949219 12.496094 C 19.792969 12.457031 19.5625 12.453125 19.410156 12.484375 Z M 19.675781 13.574219 C 19.730469 13.597656 19.757812 13.625 19.792969 13.675781 C 19.832031 13.738281 19.835938 13.757812 19.835938 13.835938 C 19.835938 14.011719 19.714844 14.183594 19.449219 14.371094 C 19.378906 14.417969 19.277344 14.480469 19.222656 14.507812 C 19.132812 14.558594 19.125 14.558594 19.089844 14.539062 C 19.007812 14.496094 18.738281 14.183594 18.722656 14.113281 C 18.683594 13.972656 19.308594 13.542969 19.558594 13.539062 C 19.585938 13.539062 19.640625 13.550781 19.675781 13.574219 Z M 19.675781 13.574219 "/>
<path style=" stroke:none;fill-rule:nonzero;fill:rgb(0%,0%,0%);fill-opacity:1;" d="M 40.515625 12.589844 C 40.410156 12.628906 40.347656 12.695312 40.304688 12.804688 C 40.269531 12.894531 40.265625 13.414062 40.292969 14.347656 L 40.316406 15.140625 L 39.925781 15.546875 C 39.472656 16.011719 39.335938 16.15625 39.234375 16.289062 C 39.078125 16.492188 39.050781 16.609375 39.125 16.738281 C 39.175781 16.824219 39.382812 17.03125 39.460938 17.066406 C 39.636719 17.15625 39.792969 17.070312 40.28125 16.609375 C 40.554688 16.347656 40.757812 16.164062 40.875 16.066406 C 41.003906 15.964844 41.0625 15.941406 41.976562 15.628906 C 43.023438 15.277344 43.28125 15.179688 43.355469 15.109375 C 43.453125 15.019531 43.460938 14.859375 43.378906 14.683594 C 43.320312 14.570312 43.160156 14.410156 43.039062 14.351562 C 42.953125 14.308594 42.933594 14.304688 42.828125 14.304688 C 42.703125 14.304688 42.667969 14.316406 41.84375 14.613281 C 41.523438 14.722656 41.324219 14.785156 41.3125 14.773438 C 41.308594 14.769531 41.296875 14.457031 41.285156 14.078125 C 41.265625 13.421875 41.25 13.152344 41.222656 13.023438 C 41.183594 12.839844 41.105469 12.734375 40.949219 12.65625 C 40.789062 12.578125 40.625 12.550781 40.515625 12.589844 Z M 40.515625 12.589844 "/>
<path style=" stroke:none;fill-rule:nonzero;fill:rgb(0%,0%,0%);fill-opacity:1;" d="M 29.589844 15.433594 C 29.347656 15.480469 29.050781 15.605469 28.816406 15.757812 C 28.550781 15.933594 28.378906 16.109375 28.195312 16.394531 L 28.09375 16.550781 L 27.777344 16.558594 C 27.347656 16.570312 27.164062 16.609375 26.878906 16.757812 C 26.34375 17.03125 26 17.613281 26 18.25 C 26 18.5 26.074219 18.875 26.167969 19.105469 C 26.199219 19.175781 26.203125 19.1875 26.183594 19.222656 C 26.15625 19.273438 26.066406 19.328125 26.015625 19.328125 C 25.957031 19.328125 25.933594 19.3125 25.800781 19.203125 C 25.472656 18.925781 25.078125 18.742188 24.59375 18.636719 C 24.070312 18.519531 23.390625 18.535156 22.921875 18.667969 C 22.574219 18.769531 22.125 18.96875 21.871094 19.140625 C 21.707031 19.25 21.582031 19.363281 21.3125 19.636719 C 20.878906 20.082031 20.699219 20.339844 20.53125 20.757812 C 20.359375 21.191406 20.28125 21.632812 20.28125 22.128906 C 20.28125 22.96875 20.539062 23.746094 21.027344 24.363281 C 21.074219 24.421875 21.21875 24.578125 21.34375 24.707031 L 21.574219 24.941406 L 21.53125 25.242188 C 21.453125 25.796875 21.445312 25.910156 21.441406 26.363281 C 21.441406 26.722656 21.445312 26.816406 21.472656 27.003906 C 21.566406 27.703125 21.714844 28.191406 22 28.773438 C 22.140625 29.0625 22.226562 29.210938 22.402344 29.46875 L 22.539062 29.667969 L 22.226562 30.039062 C 21.738281 30.625 21.464844 30.988281 21.121094 31.507812 C 20.125 33.011719 19.476562 34.621094 19.242188 36.15625 C 19.171875 36.613281 19.15625 36.78125 19.15625 37.296875 C 19.15625 37.679688 19.164062 37.820312 19.183594 37.976562 C 19.292969 38.875 19.566406 39.621094 20.039062 40.316406 C 20.546875 41.074219 21.382812 41.816406 22.160156 42.207031 C 22.5625 42.40625 23.09375 42.578125 23.582031 42.65625 C 24.40625 42.792969 25.101562 42.789062 25.820312 42.644531 C 27.195312 42.367188 28.316406 41.589844 28.816406 40.570312 C 28.9375 40.316406 29.007812 40.101562 29.074219 39.761719 C 29.105469 39.605469 29.132812 39.476562 29.132812 39.472656 C 29.136719 39.472656 29.21875 39.476562 29.320312 39.492188 C 29.566406 39.519531 29.976562 39.539062 30.367188 39.539062 L 30.6875 39.539062 L 30.703125 39.710938 C 30.742188 40.074219 30.851562 40.386719 31.074219 40.761719 C 31.289062 41.117188 31.675781 41.539062 32.058594 41.824219 C 32.511719 42.167969 33.101562 42.433594 33.777344 42.605469 C 34.214844 42.71875 34.316406 42.722656 35.292969 42.71875 C 36.160156 42.710938 36.179688 42.707031 36.507812 42.617188 C 38.429688 42.085938 39.792969 40.824219 40.386719 39.015625 C 40.460938 38.796875 40.546875 38.457031 40.578125 38.28125 C 40.667969 37.761719 40.652344 36.757812 40.546875 36.039062 C 40.492188 35.667969 40.347656 35.078125 40.195312 34.59375 C 39.960938 33.84375 39.617188 33.054688 39.226562 32.375 C 38.828125 31.683594 38.019531 30.550781 37.5625 30.046875 C 37.332031 29.789062 37.292969 29.722656 37.328125 29.617188 C 37.339844 29.589844 37.398438 29.488281 37.457031 29.394531 C 37.816406 28.839844 38.027344 28.363281 38.191406 27.726562 C 38.414062 26.871094 38.433594 26.207031 38.269531 25.1875 C 38.25 25.074219 38.234375 24.972656 38.234375 24.960938 C 38.234375 24.949219 38.324219 24.847656 38.429688 24.730469 C 38.691406 24.457031 38.785156 24.34375 38.925781 24.128906 C 39.191406 23.730469 39.371094 23.296875 39.464844 22.8125 C 39.515625 22.535156 39.53125 22.347656 39.523438 22.015625 C 39.511719 21.707031 39.496094 21.5625 39.4375 21.292969 C 39.347656 20.898438 39.128906 20.394531 38.941406 20.144531 C 38.652344 19.765625 38.195312 19.316406 37.851562 19.085938 C 37.601562 18.917969 37.199219 18.753906 36.792969 18.65625 C 36.324219 18.542969 35.742188 18.523438 35.339844 18.601562 C 34.933594 18.683594 34.304688 18.976562 33.988281 19.230469 C 33.863281 19.332031 33.820312 19.351562 33.75 19.332031 C 33.6875 19.308594 33.613281 19.265625 33.605469 19.238281 C 33.597656 19.226562 33.625 19.152344 33.667969 19.074219 C 33.761719 18.878906 33.773438 18.792969 33.785156 18.402344 C 33.792969 18.050781 33.78125 17.851562 33.738281 17.710938 C 33.679688 17.523438 33.46875 17.234375 33.246094 17.027344 C 32.824219 16.644531 32.507812 16.527344 31.949219 16.546875 L 31.71875 16.554688 L 31.589844 16.355469 C 31.4375 16.121094 31.285156 15.960938 31.085938 15.820312 C 30.855469 15.65625 30.554688 15.523438 30.246094 15.453125 C 30.085938 15.417969 29.734375 15.40625 29.589844 15.433594 Z M 30.167969 16.554688 C 30.328125 16.605469 30.445312 16.671875 30.554688 16.785156 C 30.734375 16.960938 30.792969 17.117188 30.8125 17.484375 C 30.828125 17.765625 30.847656 17.824219 30.933594 17.863281 C 30.984375 17.886719 31.023438 17.890625 31.125 17.890625 C 31.289062 17.894531 31.429688 17.859375 31.609375 17.785156 C 31.847656 17.683594 31.964844 17.660156 32.109375 17.683594 C 32.519531 17.746094 32.769531 18.167969 32.632812 18.5625 C 32.578125 18.726562 32.425781 18.941406 32.332031 18.992188 C 32.242188 19.039062 32.066406 19.03125 31.769531 18.96875 C 31.292969 18.871094 30.726562 18.824219 29.917969 18.824219 C 29.167969 18.824219 28.683594 18.859375 28.121094 18.957031 C 27.609375 19.042969 27.570312 19.035156 27.367188 18.832031 C 27.207031 18.671875 27.132812 18.492188 27.148438 18.289062 C 27.15625 18.15625 27.195312 18.054688 27.273438 17.949219 C 27.386719 17.796875 27.558594 17.695312 27.722656 17.6875 C 27.84375 17.679688 27.921875 17.695312 28.113281 17.773438 C 28.421875 17.898438 28.734375 17.933594 28.894531 17.855469 C 28.96875 17.820312 28.988281 17.722656 29.003906 17.363281 C 29.015625 17.0625 29.023438 17.035156 29.152344 16.886719 C 29.320312 16.691406 29.542969 16.5625 29.785156 16.523438 C 29.871094 16.511719 30.074219 16.527344 30.167969 16.554688 Z M 30.398438 19.566406 C 31.214844 19.59375 31.992188 19.761719 32.742188 20.082031 C 33.699219 20.488281 34.566406 21.054688 35.25 21.71875 C 36.089844 22.539062 36.6875 23.515625 37.003906 24.589844 C 37.152344 25.101562 37.164062 25.183594 37.171875 26.035156 C 37.179688 26.960938 37.167969 27.078125 37.027344 27.503906 C 36.90625 27.875 36.695312 28.324219 36.503906 28.632812 C 36.035156 29.371094 35.371094 30.042969 34.652344 30.488281 C 34.410156 30.644531 33.929688 30.882812 33.632812 31 C 33.152344 31.191406 32.589844 31.355469 32.476562 31.335938 C 32.445312 31.332031 32.34375 31.292969 32.25 31.246094 C 32.105469 31.175781 32.0625 31.160156 31.992188 31.15625 C 31.847656 31.148438 31.550781 31.238281 31.074219 31.441406 C 30.769531 31.570312 30.648438 31.613281 30.539062 31.636719 C 30.339844 31.675781 29.671875 31.699219 29.421875 31.667969 C 29.253906 31.652344 29.191406 31.632812 28.929688 31.515625 C 28.503906 31.328125 28.070312 31.1875 27.894531 31.171875 C 27.78125 31.160156 27.753906 31.167969 27.503906 31.285156 L 27.316406 31.375 L 27.027344 31.28125 C 26.144531 30.996094 25.597656 30.75 25.042969 30.386719 C 24.722656 30.175781 24.460938 29.960938 24.15625 29.664062 C 23.261719 28.800781 22.808594 27.910156 22.640625 26.695312 C 22.617188 26.519531 22.617188 25.757812 22.640625 25.566406 C 22.816406 24.121094 23.480469 22.785156 24.546875 21.71875 C 25.574219 20.691406 26.972656 19.960938 28.484375 19.65625 C 28.757812 19.601562 29.039062 19.574219 29.445312 19.558594 C 29.777344 19.550781 29.917969 19.550781 30.398438 19.566406 Z M 36.164062 19.683594 C 36.894531 19.761719 37.582031 20.191406 37.992188 20.824219 C 38.15625 21.074219 38.289062 21.386719 38.351562 21.664062 C 38.378906 21.804688 38.390625 22.191406 38.371094 22.367188 C 38.320312 22.800781 38.183594 23.195312 37.988281 23.480469 C 37.910156 23.59375 37.863281 23.644531 37.835938 23.632812 C 37.828125 23.628906 37.789062 23.546875 37.746094 23.449219 C 37.667969 23.257812 37.398438 22.703125 37.28125 22.496094 C 36.886719 21.789062 36.082031 20.945312 35.117188 20.21875 C 34.980469 20.113281 34.863281 20.023438 34.851562 20.011719 C 34.835938 19.996094 34.863281 19.980469 35.027344 19.898438 C 35.433594 19.703125 35.761719 19.636719 36.164062 19.683594 Z M 24.175781 19.714844 C 24.351562 19.746094 24.527344 19.796875 24.675781 19.855469 C 24.8125 19.914062 24.914062 19.972656 24.914062 19.992188 C 24.914062 20.007812 24.710938 20.179688 24.40625 20.429688 C 24.027344 20.730469 23.898438 20.84375 23.640625 21.101562 C 23.207031 21.535156 22.890625 21.941406 22.574219 22.46875 C 22.425781 22.710938 22.339844 22.882812 22.140625 23.296875 C 22.046875 23.5 21.964844 23.667969 21.960938 23.671875 C 21.945312 23.6875 21.808594 23.484375 21.738281 23.34375 C 21.617188 23.089844 21.507812 22.746094 21.453125 22.449219 C 21.425781 22.269531 21.429688 21.964844 21.464844 21.761719 C 21.554688 21.226562 21.789062 20.765625 22.167969 20.386719 C 22.429688 20.125 22.691406 19.953125 23.003906 19.832031 C 23.148438 19.777344 23.410156 19.710938 23.554688 19.695312 C 23.707031 19.679688 24.035156 19.6875 24.175781 19.714844 Z M 23.378906 30.644531 C 23.417969 30.667969 23.523438 30.753906 23.617188 30.832031 C 24.507812 31.546875 25.886719 32.222656 26.867188 32.421875 C 27.023438 32.457031 27.128906 32.492188 27.148438 32.527344 C 27.164062 32.550781 27.234375 33.503906 27.222656 33.511719 C 27.21875 33.511719 27.0625 33.5625 26.871094 33.621094 C 26.046875 33.871094 25.558594 34.085938 25.066406 34.410156 C 24.855469 34.550781 24.777344 34.613281 24.550781 34.816406 C 24.46875 34.894531 24.382812 34.957031 24.363281 34.964844 C 24.339844 34.972656 24.292969 34.953125 24.175781 34.890625 C 23.910156 34.753906 23.683594 34.695312 23.378906 34.699219 C 23.160156 34.699219 23.007812 34.722656 22.828125 34.789062 C 22.382812 34.949219 22.175781 35.285156 22.394531 35.492188 C 22.488281 35.578125 22.597656 35.597656 22.800781 35.554688 C 23.007812 35.511719 23.238281 35.511719 23.371094 35.554688 C 23.46875 35.585938 23.703125 35.710938 23.710938 35.738281 C 23.714844 35.746094 23.695312 35.828125 23.664062 35.917969 C 23.589844 36.136719 23.570312 36.269531 23.570312 36.507812 C 23.570312 36.808594 23.609375 37 23.726562 37.230469 C 23.96875 37.714844 24.589844 38.273438 25.246094 38.59375 C 25.769531 38.851562 26.464844 39.066406 27.515625 39.300781 C 27.742188 39.351562 27.929688 39.398438 27.9375 39.402344 C 27.953125 39.417969 27.925781 39.691406 27.898438 39.800781 C 27.867188 39.921875 27.714844 40.21875 27.621094 40.34375 C 27.363281 40.6875 27.050781 40.945312 26.648438 41.144531 C 25.976562 41.476562 25.433594 41.582031 24.542969 41.550781 C 23.664062 41.515625 23.175781 41.402344 22.53125 41.070312 C 21.5 40.546875 20.707031 39.558594 20.421875 38.445312 C 20.34375 38.132812 20.328125 37.953125 20.328125 37.289062 C 20.328125 36.660156 20.339844 36.476562 20.410156 36.0625 C 20.597656 34.9375 21.261719 33.34375 22.003906 32.234375 C 22.46875 31.535156 23.210938 30.597656 23.292969 30.597656 C 23.304688 30.597656 23.34375 30.617188 23.378906 30.644531 Z M 36.601562 30.699219 C 36.742188 30.847656 37.09375 31.273438 37.308594 31.5625 C 37.785156 32.195312 38.183594 32.84375 38.539062 33.566406 C 39.253906 35.015625 39.5 35.96875 39.5 37.316406 C 39.5 37.835938 39.46875 38.136719 39.382812 38.449219 C 39.171875 39.207031 38.734375 39.929688 38.167969 40.445312 C 37.539062 41.019531 36.730469 41.402344 35.894531 41.523438 C 35.113281 41.636719 34.078125 41.535156 33.40625 41.277344 C 32.9375 41.097656 32.46875 40.742188 32.167969 40.34375 C 32.074219 40.21875 31.941406 39.960938 31.902344 39.828125 C 31.875 39.742188 31.816406 39.402344 31.824219 39.390625 C 31.828125 39.390625 32.007812 39.355469 32.222656 39.316406 C 33.246094 39.125 33.835938 38.941406 34.550781 38.585938 C 34.851562 38.4375 34.992188 38.355469 35.164062 38.222656 C 35.316406 38.105469 35.8125 37.605469 35.921875 37.460938 C 36.1875 37.109375 36.308594 36.578125 36.21875 36.160156 C 36.207031 36.109375 36.171875 35.992188 36.140625 35.902344 C 36.078125 35.714844 36.066406 35.746094 36.246094 35.636719 C 36.363281 35.5625 36.476562 35.53125 36.589844 35.53125 C 36.628906 35.53125 36.824219 35.542969 37.019531 35.558594 C 37.210938 35.570312 37.371094 35.585938 37.375 35.585938 C 37.390625 35.585938 37.476562 35.363281 37.484375 35.3125 C 37.515625 35.019531 37.117188 34.753906 36.574219 34.699219 C 36.410156 34.683594 36.285156 34.691406 36.101562 34.722656 C 35.953125 34.75 35.832031 34.792969 35.625 34.898438 L 35.453125 34.984375 L 35.304688 34.847656 C 35.105469 34.664062 34.96875 34.554688 34.78125 34.429688 C 34.292969 34.097656 33.746094 33.855469 33.015625 33.640625 C 32.882812 33.601562 32.734375 33.558594 32.683594 33.542969 L 32.59375 33.515625 L 32.601562 33.039062 C 32.605469 32.773438 32.617188 32.542969 32.621094 32.527344 C 32.628906 32.496094 32.652344 32.488281 32.960938 32.410156 C 33.699219 32.222656 34.226562 32.027344 34.855469 31.710938 C 35.390625 31.441406 35.777344 31.191406 36.117188 30.890625 C 36.320312 30.710938 36.457031 30.613281 36.5 30.609375 C 36.507812 30.609375 36.554688 30.648438 36.601562 30.699219 Z M 31.691406 32.09375 C 31.675781 32.144531 31.660156 32.367188 31.648438 32.640625 C 31.640625 32.960938 31.617188 33.230469 31.601562 33.261719 C 31.582031 33.296875 31.53125 33.292969 31.429688 33.253906 C 31.371094 33.226562 31.324219 33.21875 31.257812 33.21875 C 31.160156 33.21875 31.136719 33.210938 31.050781 33.144531 C 30.953125 33.066406 30.882812 32.972656 30.863281 32.902344 C 30.859375 32.882812 30.839844 32.859375 30.824219 32.851562 C 30.757812 32.816406 30.738281 32.679688 30.789062 32.589844 C 30.839844 32.5 31.140625 32.289062 31.253906 32.261719 C 31.277344 32.257812 31.304688 32.246094 31.3125 32.238281 C 31.347656 32.210938 31.648438 32.0625 31.675781 32.0625 C 31.695312 32.0625 31.699219 32.070312 31.691406 32.09375 Z M 28.414062 32.210938 C 28.726562 32.355469 28.9375 32.484375 29.035156 32.589844 C 29.09375 32.652344 29.101562 32.667969 29.101562 32.71875 C 29.101562 32.800781 29.082031 32.820312 28.886719 32.976562 C 28.589844 33.214844 28.546875 33.238281 28.320312 33.277344 C 28.25 33.289062 28.1875 33.304688 28.171875 33.308594 C 28.152344 33.316406 28.148438 33.296875 28.148438 33.03125 C 28.148438 32.785156 28.132812 32.519531 28.101562 32.25 C 28.089844 32.171875 28.101562 32.078125 28.121094 32.078125 C 28.128906 32.078125 28.261719 32.136719 28.414062 32.210938 Z M 30.101562 32.554688 C 30.175781 32.601562 30.242188 32.660156 30.265625 32.707031 C 30.285156 32.742188 30.289062 32.800781 30.292969 32.972656 L 30.300781 33.195312 L 29.984375 33.1875 C 29.808594 33.183594 29.644531 33.171875 29.617188 33.167969 C 29.570312 33.15625 29.566406 33.152344 29.554688 33.082031 C 29.527344 32.953125 29.53125 32.789062 29.5625 32.722656 C 29.597656 32.652344 29.667969 32.585938 29.753906 32.546875 C 29.847656 32.503906 30.027344 32.507812 30.101562 32.554688 Z M 30.046875 34.074219 C 31.484375 34.125 32.359375 34.273438 33.21875 34.613281 C 34.019531 34.929688 34.578125 35.335938 34.785156 35.753906 C 34.933594 36.054688 34.882812 36.347656 34.625 36.667969 C 34.402344 36.949219 33.960938 37.234375 33.511719 37.398438 C 33.175781 37.519531 32.621094 37.664062 32.117188 37.765625 C 31.417969 37.902344 31 37.933594 29.871094 37.933594 C 28.980469 37.933594 28.652344 37.917969 28.152344 37.847656 C 26.984375 37.679688 26.054688 37.363281 25.492188 36.949219 C 25.214844 36.746094 25.023438 36.496094 24.964844 36.269531 C 24.9375 36.160156 24.9375 36 24.964844 35.890625 C 25.011719 35.699219 25.179688 35.460938 25.378906 35.285156 C 26.015625 34.734375 27.195312 34.3125 28.578125 34.136719 C 29.136719 34.066406 29.429688 34.054688 30.046875 34.074219 Z M 30.046875 34.074219 "/>
<path style=" stroke:none;fill-rule:nonzero;fill:rgb(0%,0%,0%);fill-opacity:1;" d="M 26.417969 23.921875 C 26.195312 23.980469 26.035156 24.085938 25.925781 24.253906 C 25.789062 24.453125 25.722656 24.675781 25.734375 24.867188 C 25.761719 25.285156 26.078125 25.640625 26.492188 25.722656 C 26.640625 25.753906 26.777344 25.742188 26.945312 25.6875 C 27.109375 25.632812 27.21875 25.570312 27.328125 25.46875 C 27.480469 25.328125 27.550781 25.175781 27.578125 24.945312 C 27.628906 24.488281 27.371094 24.089844 26.933594 23.941406 C 26.78125 23.890625 26.570312 23.882812 26.417969 23.921875 Z M 26.417969 23.921875 "/>
<path style=" stroke:none;fill-rule:nonzero;fill:rgb(0%,0%,0%);fill-opacity:1;" d="M 33.019531 23.910156 C 32.886719 23.925781 32.746094 23.976562 32.660156 24.035156 C 32.5 24.140625 32.359375 24.332031 32.285156 24.539062 C 32.25 24.636719 32.246094 24.667969 32.25 24.832031 C 32.25 24.996094 32.253906 25.027344 32.285156 25.125 C 32.378906 25.40625 32.605469 25.628906 32.894531 25.71875 C 33.023438 25.757812 33.222656 25.761719 33.347656 25.722656 C 33.53125 25.667969 33.734375 25.542969 33.867188 25.398438 C 34.171875 25.066406 34.175781 24.589844 33.882812 24.238281 C 33.804688 24.144531 33.667969 24.03125 33.585938 23.988281 C 33.449219 23.921875 33.195312 23.882812 33.019531 23.910156 Z M 33.019531 23.910156 "/>
<path style=" stroke:none;fill-rule:nonzero;fill:rgb(0%,0%,0%);fill-opacity:1;" d="M 29.65625 25.210938 C 29.558594 25.242188 29.441406 25.277344 29.398438 25.292969 C 29.097656 25.410156 28.851562 25.699219 28.757812 26.050781 C 28.726562 26.175781 28.71875 26.398438 28.746094 26.523438 C 28.859375 27.066406 29.347656 27.457031 29.910156 27.457031 C 30.328125 27.453125 30.703125 27.257812 30.929688 26.921875 C 31.238281 26.453125 31.171875 25.898438 30.761719 25.507812 C 30.605469 25.363281 30.410156 25.261719 30.160156 25.191406 C 29.980469 25.144531 29.886719 25.148438 29.65625 25.210938 Z M 29.65625 25.210938 "/>
<path style=" stroke:none;fill-rule:nonzero;fill:rgb(0%,0%,0%);fill-opacity:1;" d="M 29.605469 34.570312 C 29.476562 34.597656 29.375 34.644531 29.304688 34.722656 C 29.210938 34.824219 29.242188 34.914062 29.394531 34.996094 C 29.644531 35.128906 30.054688 35.144531 30.308594 35.03125 C 30.449219 34.96875 30.515625 34.898438 30.515625 34.808594 C 30.515625 34.707031 30.429688 34.632812 30.273438 34.589844 C 30.132812 34.554688 29.753906 34.542969 29.605469 34.570312 Z M 29.605469 34.570312 "/>
<path style=" stroke:none;fill-rule:nonzero;fill:rgb(0%,0%,0%);fill-opacity:1;" d="M 27.652344 34.699219 C 27.433594 34.757812 27.292969 34.835938 27.257812 34.925781 C 27.175781 35.121094 27.363281 35.230469 27.816406 35.253906 C 28.050781 35.261719 28.175781 35.246094 28.261719 35.191406 C 28.320312 35.148438 28.527344 34.949219 28.515625 34.941406 C 28.472656 34.902344 28.246094 34.761719 28.195312 34.742188 C 28.03125 34.671875 27.824219 34.652344 27.652344 34.699219 Z M 27.652344 34.699219 "/>
<path style=" stroke:none;fill-rule:nonzero;fill:rgb(0%,0%,0%);fill-opacity:1;" d="M 31.761719 34.6875 C 31.546875 34.714844 31.359375 34.828125 31.335938 34.941406 C 31.300781 35.113281 31.601562 35.277344 31.949219 35.273438 C 32.363281 35.273438 32.652344 35.09375 32.539062 34.910156 C 32.480469 34.8125 32.257812 34.714844 32.03125 34.6875 C 31.894531 34.671875 31.890625 34.671875 31.761719 34.6875 Z M 31.761719 34.6875 "/>
<path style=" stroke:none;fill-rule:nonzero;fill:rgb(0%,0%,0%);fill-opacity:1;" d="M 33.222656 35.269531 C 33.128906 35.289062 32.9375 35.351562 32.863281 35.386719 C 32.753906 35.445312 32.707031 35.535156 32.746094 35.628906 C 32.804688 35.765625 33.082031 35.851562 33.421875 35.839844 C 33.699219 35.824219 33.882812 35.773438 33.941406 35.6875 C 33.964844 35.660156 33.976562 35.621094 33.976562 35.5625 C 33.984375 35.484375 33.980469 35.476562 33.9375 35.429688 C 33.890625 35.375 33.789062 35.320312 33.679688 35.289062 C 33.589844 35.265625 33.320312 35.253906 33.222656 35.269531 Z M 33.222656 35.269531 "/>
<path style=" stroke:none;fill-rule:nonzero;fill:rgb(0%,0%,0%);fill-opacity:1;" d="M 26.242188 35.300781 C 26.03125 35.328125 25.886719 35.382812 25.8125 35.46875 C 25.640625 35.664062 26.019531 35.878906 26.496094 35.851562 C 26.96875 35.824219 27.167969 35.640625 26.953125 35.433594 C 26.875 35.359375 26.796875 35.316406 26.695312 35.296875 C 26.609375 35.28125 26.375 35.285156 26.242188 35.300781 Z M 26.242188 35.300781 "/>
<path style=" stroke:none;fill-rule:nonzero;fill:rgb(0%,0%,0%);fill-opacity:1;" d="M 28.65625 35.382812 C 28.457031 35.433594 28.300781 35.539062 28.277344 35.632812 C 28.246094 35.753906 28.386719 35.863281 28.636719 35.917969 C 28.773438 35.945312 29.019531 35.941406 29.144531 35.910156 C 29.273438 35.878906 29.316406 35.855469 29.394531 35.785156 C 29.558594 35.632812 29.472656 35.511719 29.117188 35.394531 C 28.964844 35.34375 28.808594 35.339844 28.65625 35.382812 Z M 28.65625 35.382812 "/>
<path style=" stroke:none;fill-rule:nonzero;fill:rgb(0%,0%,0%);fill-opacity:1;" d="M 30.585938 35.40625 C 30.476562 35.421875 30.382812 35.476562 30.3125 35.558594 C 30.214844 35.679688 30.242188 35.738281 30.433594 35.832031 C 30.703125 35.960938 31 35.992188 31.230469 35.910156 C 31.320312 35.878906 31.386719 35.828125 31.441406 35.75 C 31.542969 35.609375 31.457031 35.492188 31.207031 35.433594 C 31.089844 35.402344 30.722656 35.386719 30.585938 35.40625 Z M 30.585938 35.40625 "/>
<path style=" stroke:none;fill-rule:nonzero;fill:rgb(0%,0%,0%);fill-opacity:1;" d="M 27.386719 36.144531 C 27.21875 36.160156 27.136719 36.1875 27.070312 36.25 C 26.996094 36.316406 26.972656 36.382812 26.992188 36.441406 C 27.015625 36.507812 27.070312 36.574219 27.128906 36.601562 C 27.308594 36.695312 27.710938 36.707031 27.964844 36.628906 C 28.027344 36.609375 28.0625 36.589844 28.109375 36.539062 C 28.1875 36.460938 28.203125 36.429688 28.203125 36.363281 C 28.203125 36.199219 27.832031 36.097656 27.386719 36.144531 Z M 27.386719 36.144531 "/>
<path style=" stroke:none;fill-rule:nonzero;fill:rgb(0%,0%,0%);fill-opacity:1;" d="M 31.878906 36.140625 C 31.644531 36.179688 31.484375 36.292969 31.511719 36.40625 C 31.535156 36.496094 31.664062 36.582031 31.855469 36.632812 C 31.988281 36.667969 32.292969 36.683594 32.425781 36.660156 C 32.6875 36.613281 32.84375 36.472656 32.78125 36.339844 C 32.75 36.277344 32.601562 36.203125 32.429688 36.167969 C 32.28125 36.136719 32 36.125 31.878906 36.140625 Z M 31.878906 36.140625 "/>
<path style=" stroke:none;fill-rule:nonzero;fill:rgb(0%,0%,0%);fill-opacity:1;" d="M 29.707031 36.195312 C 29.5625 36.210938 29.449219 36.246094 29.335938 36.316406 C 29.152344 36.421875 29.136719 36.46875 29.25 36.585938 C 29.367188 36.699219 29.519531 36.738281 29.847656 36.738281 C 30.074219 36.738281 30.257812 36.707031 30.355469 36.65625 C 30.480469 36.585938 30.53125 36.457031 30.472656 36.363281 C 30.398438 36.242188 30.035156 36.164062 29.707031 36.195312 Z M 29.707031 36.195312 "/>
<path style=" stroke:none;fill-rule:nonzero;fill:rgb(0%,0%,0%);fill-opacity:1;" d="M 33.617188 36.222656 C 33.460938 36.246094 33.316406 36.316406 33.226562 36.414062 C 33.148438 36.496094 33.144531 36.554688 33.207031 36.617188 C 33.261719 36.671875 33.300781 36.691406 33.445312 36.734375 C 33.542969 36.761719 33.601562 36.769531 33.769531 36.777344 C 34.070312 36.785156 34.214844 36.75 34.351562 36.628906 C 34.386719 36.597656 34.425781 36.554688 34.433594 36.535156 C 34.503906 36.398438 34.1875 36.242188 33.804688 36.21875 C 33.738281 36.214844 33.65625 36.214844 33.617188 36.222656 Z M 33.617188 36.222656 "/>
<path style=" stroke:none;fill-rule:nonzero;fill:rgb(0%,0%,0%);fill-opacity:1;" d="M 25.6875 36.261719 C 25.535156 36.289062 25.472656 36.316406 25.402344 36.382812 C 25.324219 36.457031 25.3125 36.5 25.339844 36.566406 C 25.394531 36.691406 25.65625 36.78125 25.96875 36.777344 C 26.296875 36.777344 26.558594 36.664062 26.558594 36.523438 C 26.558594 36.425781 26.46875 36.335938 26.324219 36.289062 C 26.253906 36.265625 26.195312 36.257812 25.996094 36.253906 C 25.859375 36.253906 25.722656 36.257812 25.6875 36.261719 Z M 25.6875 36.261719 "/>
<path style=" stroke:none;fill-rule:nonzero;fill:rgb(0%,0%,0%);fill-opacity:1;" d="M 28.269531 36.957031 C 27.839844 37.011719 27.675781 37.234375 27.925781 37.425781 C 28.160156 37.605469 28.765625 37.582031 29.03125 37.382812 C 29.183594 37.265625 29.117188 37.109375 28.878906 37.023438 C 28.703125 36.964844 28.445312 36.933594 28.269531 36.957031 Z M 28.269531 36.957031 "/>
<path style=" stroke:none;fill-rule:nonzero;fill:rgb(0%,0%,0%);fill-opacity:1;" d="M 31.066406 36.964844 C 30.976562 36.984375 30.820312 37.046875 30.765625 37.078125 C 30.617188 37.175781 30.613281 37.289062 30.757812 37.394531 C 30.898438 37.496094 31.117188 37.546875 31.367188 37.539062 C 31.703125 37.523438 31.941406 37.414062 31.941406 37.273438 C 31.941406 37.09375 31.636719 36.953125 31.253906 36.957031 C 31.164062 36.960938 31.078125 36.960938 31.066406 36.964844 Z M 31.066406 36.964844 "/>
<path style=" stroke:none;fill-rule:nonzero;fill:rgb(0%,0%,0%);fill-opacity:1;" d="M 15.179688 15.804688 C 15.101562 15.824219 15.015625 15.882812 14.929688 15.972656 C 14.597656 16.339844 13.445312 17.929688 13.386719 18.101562 C 13.363281 18.164062 13.378906 18.253906 13.425781 18.339844 C 13.472656 18.425781 13.582031 18.507812 14.132812 18.878906 C 15.09375 19.519531 16.296875 20.269531 16.613281 20.421875 C 16.789062 20.507812 16.808594 20.511719 16.933594 20.449219 C 17.085938 20.375 17.1875 20.265625 17.273438 20.085938 C 17.363281 19.902344 17.390625 19.804688 17.367188 19.730469 C 17.332031 19.613281 17.070312 19.402344 16.636719 19.152344 C 16.410156 19.019531 16.09375 18.808594 16.09375 18.792969 C 16.09375 18.773438 16.152344 18.675781 16.378906 18.328125 C 16.746094 17.765625 16.835938 17.597656 16.820312 17.496094 C 16.804688 17.367188 16.734375 17.261719 16.617188 17.1875 C 16.46875 17.09375 16.320312 17.0625 16.21875 17.105469 C 16.09375 17.160156 15.984375 17.285156 15.546875 17.875 C 15.378906 18.09375 15.242188 18.277344 15.238281 18.285156 C 15.222656 18.300781 14.894531 18.0625 14.804688 17.976562 C 14.765625 17.941406 14.734375 17.898438 14.734375 17.886719 C 14.734375 17.859375 14.941406 17.542969 15.203125 17.175781 C 15.644531 16.546875 15.738281 16.378906 15.738281 16.207031 C 15.738281 15.972656 15.433594 15.753906 15.179688 15.804688 Z M 15.179688 15.804688 "/>
<path style=" stroke:none;fill-rule:nonzero;fill:rgb(0%,0%,0%);fill-opacity:1;" d="M 44.542969 16.800781 C 44.382812 16.832031 44.289062 16.871094 44.171875 16.949219 C 43.992188 17.066406 43.851562 17.230469 43.753906 17.441406 C 43.664062 17.632812 43.636719 17.746094 43.636719 17.949219 C 43.636719 18.144531 43.648438 18.226562 43.726562 18.558594 C 43.910156 19.359375 43.914062 19.511719 43.753906 19.605469 C 43.683594 19.644531 43.523438 19.644531 43.445312 19.605469 C 43.367188 19.558594 43.285156 19.476562 43.230469 19.371094 C 43.140625 19.199219 43.117188 19.066406 43.101562 18.695312 C 43.09375 18.539062 43.082031 18.402344 43.070312 18.371094 C 43.042969 18.289062 42.945312 18.195312 42.847656 18.160156 C 42.574219 18.054688 42.203125 18.171875 42.09375 18.402344 C 42.0625 18.460938 42.0625 18.476562 42.0625 18.796875 C 42.0625 19.167969 42.070312 19.21875 42.15625 19.445312 C 42.316406 19.839844 42.667969 20.269531 43.027344 20.5 C 43.3125 20.6875 43.691406 20.742188 44.03125 20.652344 C 44.503906 20.519531 44.847656 20.15625 44.929688 19.703125 C 44.96875 19.457031 44.941406 19.238281 44.789062 18.609375 C 44.71875 18.34375 44.699219 18.183594 44.707031 18.058594 C 44.722656 17.890625 44.800781 17.804688 44.945312 17.804688 C 45.035156 17.804688 45.070312 17.820312 45.136719 17.882812 C 45.273438 18.003906 45.339844 18.199219 45.394531 18.644531 C 45.453125 19.085938 45.527344 19.210938 45.773438 19.261719 C 45.890625 19.28125 46.046875 19.269531 46.121094 19.234375 C 46.246094 19.167969 46.371094 19.007812 46.417969 18.847656 C 46.519531 18.519531 46.28125 17.84375 45.890625 17.332031 C 45.773438 17.183594 45.550781 16.96875 45.445312 16.90625 C 45.351562 16.847656 45.234375 16.804688 45.109375 16.789062 C 44.972656 16.765625 44.675781 16.769531 44.542969 16.800781 Z M 44.542969 16.800781 "/>
<path style=" stroke:none;fill-rule:nonzero;fill:rgb(0%,0%,0%);fill-opacity:1;" d="M 11.226562 27.339844 C 10.910156 27.429688 10.640625 27.769531 10.605469 28.113281 C 10.59375 28.242188 10.621094 28.347656 10.71875 28.539062 C 10.878906 28.867188 10.988281 28.898438 11.132812 28.652344 C 11.214844 28.511719 11.257812 28.367188 11.246094 28.265625 C 11.242188 28.195312 11.242188 28.175781 11.265625 28.136719 C 11.304688 28.078125 11.371094 28.039062 11.4375 28.039062 C 11.507812 28.039062 11.550781 28.070312 11.566406 28.132812 C 11.589844 28.226562 11.574219 28.273438 11.359375 28.652344 C 11.3125 28.738281 11.183594 28.972656 11.078125 29.175781 C 10.972656 29.375 10.851562 29.597656 10.816406 29.667969 L 10.75 29.792969 L 12.289062 29.792969 L 12.289062 29.113281 L 12.097656 29.113281 C 11.992188 29.113281 11.90625 29.113281 11.90625 29.109375 C 11.90625 29.105469 11.960938 28.992188 12.027344 28.851562 C 12.210938 28.488281 12.273438 28.265625 12.253906 28.058594 C 12.230469 27.753906 12 27.457031 11.710938 27.367188 C 11.570312 27.320312 11.339844 27.308594 11.226562 27.339844 Z M 11.226562 27.339844 "/>
<path style=" stroke:none;fill-rule:nonzero;fill:rgb(0%,0%,0%);fill-opacity:1;" d="M 13.59375 27.339844 C 13.472656 27.375 13.386719 27.429688 13.273438 27.542969 C 13.148438 27.667969 13.097656 27.753906 13.042969 27.949219 C 12.988281 28.132812 12.976562 28.265625 12.976562 28.578125 C 12.976562 29.019531 13.011719 29.242188 13.113281 29.429688 C 13.234375 29.660156 13.542969 29.835938 13.828125 29.835938 C 13.949219 29.835938 14.164062 29.78125 14.261719 29.730469 C 14.480469 29.613281 14.605469 29.371094 14.652344 28.984375 C 14.667969 28.824219 14.667969 28.308594 14.652344 28.164062 C 14.605469 27.789062 14.492188 27.5625 14.296875 27.445312 C 14.125 27.34375 13.769531 27.289062 13.59375 27.339844 Z M 13.910156 28.027344 C 13.949219 28.066406 13.960938 28.195312 13.960938 28.683594 L 13.960938 29.140625 L 13.855469 29.140625 C 13.765625 29.140625 13.75 29.136719 13.722656 29.109375 C 13.679688 29.066406 13.667969 28.960938 13.667969 28.488281 C 13.667969 28.089844 13.675781 28.03125 13.730469 28.003906 C 13.773438 27.980469 13.878906 27.996094 13.910156 28.027344 Z M 13.910156 28.027344 "/>
<path style=" stroke:none;fill-rule:nonzero;fill:rgb(0%,0%,0%);fill-opacity:1;" d="M 46.171875 27.339844 C 45.996094 27.390625 45.785156 27.558594 45.675781 27.738281 C 45.550781 27.957031 45.519531 28.195312 45.59375 28.382812 C 45.648438 28.535156 45.738281 28.695312 45.800781 28.757812 C 45.894531 28.855469 45.972656 28.828125 46.078125 28.652344 C 46.160156 28.511719 46.203125 28.367188 46.191406 28.265625 C 46.1875 28.195312 46.1875 28.175781 46.210938 28.136719 C 46.25 28.078125 46.316406 28.039062 46.382812 28.039062 C 46.453125 28.039062 46.496094 28.070312 46.511719 28.132812 C 46.535156 28.210938 46.503906 28.308594 46.382812 28.515625 C 46.273438 28.707031 46.167969 28.902344 45.894531 29.421875 C 45.789062 29.613281 45.703125 29.777344 45.699219 29.78125 C 45.699219 29.789062 46.042969 29.792969 46.46875 29.792969 L 47.246094 29.792969 L 47.246094 29.113281 L 47.050781 29.113281 C 46.941406 29.113281 46.851562 29.113281 46.851562 29.109375 C 46.851562 29.105469 46.90625 28.992188 46.972656 28.851562 C 47.242188 28.316406 47.269531 28.03125 47.089844 27.71875 C 47.035156 27.628906 46.855469 27.453125 46.765625 27.410156 C 46.597656 27.328125 46.339844 27.296875 46.171875 27.339844 Z M 46.171875 27.339844 "/>
<path style=" stroke:none;fill-rule:nonzero;fill:rgb(0%,0%,0%);fill-opacity:1;" d="M 48.554688 27.363281 C 48.53125 27.394531 47.871094 28.972656 47.871094 29 C 47.871094 29.039062 47.960938 29.050781 48.367188 29.058594 L 48.769531 29.0625 L 48.765625 28.847656 C 48.757812 28.632812 48.746094 28.566406 48.707031 28.535156 C 48.667969 28.507812 48.695312 28.414062 48.816406 28.183594 L 48.925781 27.964844 L 48.929688 28.878906 L 48.929688 29.792969 L 49.625 29.792969 L 49.617188 27.355469 L 49.09375 27.351562 C 48.683594 27.347656 48.5625 27.351562 48.554688 27.363281 Z M 48.554688 27.363281 "/>
<path style=" stroke:none;fill-rule:nonzero;fill:rgb(0%,0%,0%);fill-opacity:1;" d="M 18.050781 41.207031 C 17.96875 41.246094 17.582031 41.648438 16.78125 42.519531 C 16.171875 43.183594 16.070312 43.367188 16.179688 43.574219 C 16.238281 43.679688 16.371094 43.8125 16.441406 43.832031 C 16.613281 43.878906 16.753906 43.804688 17.085938 43.484375 L 17.296875 43.28125 L 17.464844 43.445312 C 17.722656 43.695312 17.996094 43.882812 18.210938 43.957031 C 18.34375 44.003906 18.527344 44.007812 18.675781 43.972656 C 19.078125 43.871094 19.429688 43.539062 19.511719 43.183594 C 19.5625 42.980469 19.511719 42.625 19.402344 42.402344 C 19.320312 42.230469 19.082031 41.945312 18.738281 41.597656 C 18.476562 41.339844 18.386719 41.265625 18.273438 41.214844 C 18.179688 41.179688 18.117188 41.175781 18.050781 41.207031 Z M 18.261719 42.339844 C 18.363281 42.402344 18.640625 42.691406 18.714844 42.816406 C 18.730469 42.839844 18.742188 42.875 18.742188 42.886719 C 18.742188 42.925781 18.582031 43.078125 18.5 43.117188 C 18.460938 43.136719 18.40625 43.15625 18.382812 43.15625 C 18.300781 43.15625 18.117188 43.019531 17.945312 42.828125 L 17.835938 42.710938 L 17.890625 42.636719 C 18.011719 42.472656 18.085938 42.390625 18.136719 42.351562 C 18.199219 42.304688 18.207031 42.304688 18.261719 42.339844 Z M 18.261719 42.339844 "/>
<path style=" stroke:none;fill-rule:nonzero;fill:rgb(0%,0%,0%);fill-opacity:1;" d="M 41.183594 41.46875 C 41.019531 41.519531 40.894531 41.671875 40.894531 41.808594 C 40.898438 41.898438 40.996094 42.179688 41.261719 42.839844 C 41.390625 43.160156 41.566406 43.605469 41.652344 43.832031 C 41.960938 44.636719 41.988281 44.675781 42.1875 44.675781 C 42.324219 44.675781 42.410156 44.648438 42.492188 44.570312 C 42.585938 44.484375 42.636719 44.390625 42.636719 44.308594 C 42.636719 44.273438 42.609375 44.148438 42.578125 44.03125 C 42.515625 43.808594 42.492188 43.675781 42.507812 43.613281 C 42.519531 43.554688 42.601562 43.476562 42.753906 43.367188 C 42.914062 43.25 42.988281 43.210938 43.046875 43.210938 C 43.070312 43.210938 43.140625 43.230469 43.207031 43.253906 C 43.480469 43.363281 43.609375 43.34375 43.785156 43.164062 C 43.902344 43.046875 43.9375 42.972656 43.9375 42.839844 C 43.9375 42.746094 43.933594 42.730469 43.894531 42.675781 C 43.859375 42.625 43.824219 42.601562 43.488281 42.433594 C 42.734375 42.054688 41.40625 41.476562 41.269531 41.460938 C 41.242188 41.457031 41.203125 41.460938 41.183594 41.46875 Z M 42.203125 42.570312 C 42.289062 42.613281 42.375 42.667969 42.390625 42.683594 L 42.425781 42.71875 L 42.375 42.761719 C 42.316406 42.816406 42.167969 42.910156 42.125 42.917969 C 42.074219 42.933594 42.058594 42.917969 42.015625 42.824219 C 41.964844 42.71875 41.890625 42.5 41.890625 42.453125 L 41.890625 42.421875 L 41.96875 42.457031 C 42.011719 42.476562 42.117188 42.527344 42.203125 42.570312 Z M 42.203125 42.570312 "/>
<path style=" stroke:none;fill-rule:nonzero;fill:rgb(0%,0%,0%);fill-opacity:1;" d="M 38.804688 43.28125 C 38.660156 43.3125 38.5625 43.394531 38.5 43.527344 C 38.445312 43.644531 38.445312 43.671875 38.492188 43.78125 C 38.691406 44.214844 39.515625 45.609375 39.832031 46.046875 C 39.957031 46.214844 40.007812 46.246094 40.152344 46.246094 C 40.222656 46.246094 40.257812 46.234375 40.332031 46.203125 C 40.488281 46.128906 40.582031 46.007812 40.59375 45.859375 C 40.601562 45.789062 40.597656 45.777344 40.507812 45.601562 C 40.253906 45.113281 39.429688 43.730469 39.210938 43.4375 C 39.105469 43.296875 38.972656 43.246094 38.804688 43.28125 Z M 38.804688 43.28125 "/>
<path style=" stroke:none;fill-rule:nonzero;fill:rgb(0%,0%,0%);fill-opacity:1;" d="M 21.289062 43.507812 C 21.203125 43.527344 21.128906 43.566406 21.074219 43.632812 C 20.882812 43.859375 20.039062 45.277344 19.75 45.859375 C 19.683594 45.996094 19.652344 46.070312 19.652344 46.101562 C 19.652344 46.226562 19.8125 46.414062 19.960938 46.46875 C 20.046875 46.503906 20.164062 46.507812 20.230469 46.480469 C 20.300781 46.449219 20.375 46.367188 20.496094 46.1875 C 20.8125 45.710938 21.519531 44.515625 21.714844 44.117188 C 21.792969 43.953125 21.804688 43.886719 21.773438 43.777344 C 21.75 43.707031 21.652344 43.597656 21.570312 43.554688 C 21.523438 43.53125 21.351562 43.488281 21.347656 43.496094 C 21.347656 43.496094 21.320312 43.503906 21.289062 43.507812 Z M 21.289062 43.507812 "/>
<path style=" stroke:none;fill-rule:nonzero;fill:rgb(0%,0%,0%);fill-opacity:1;" d="M 23.195312 44.613281 C 23.09375 44.675781 23.011719 44.847656 23 45.015625 C 22.996094 45.113281 22.996094 45.121094 23.035156 45.175781 C 23.121094 45.304688 23.28125 45.390625 23.683594 45.523438 C 23.96875 45.617188 24.089844 45.667969 24.105469 45.703125 C 24.109375 45.714844 24.085938 45.742188 24.0625 45.765625 C 23.984375 45.832031 23.554688 46.113281 23.132812 46.371094 C 22.617188 46.6875 22.320312 46.878906 22.269531 46.925781 C 22.214844 46.976562 22.191406 47.082031 22.191406 47.238281 C 22.191406 47.429688 22.234375 47.492188 22.425781 47.585938 C 22.722656 47.722656 23.875 48.113281 24.300781 48.222656 C 24.425781 48.257812 24.546875 48.261719 24.621094 48.238281 C 24.683594 48.21875 24.773438 48.117188 24.816406 48.023438 C 24.855469 47.933594 24.871094 47.78125 24.847656 47.699219 C 24.796875 47.550781 24.714844 47.503906 24.09375 47.289062 C 23.785156 47.179688 23.601562 47.101562 23.605469 47.074219 C 23.605469 47.0625 23.789062 46.933594 24.460938 46.480469 C 25.300781 45.914062 25.476562 45.761719 25.519531 45.578125 C 25.53125 45.515625 25.492188 45.382812 25.4375 45.320312 C 25.347656 45.214844 25.175781 45.144531 24.320312 44.863281 C 23.707031 44.65625 23.488281 44.597656 23.351562 44.585938 C 23.261719 44.582031 23.242188 44.582031 23.195312 44.613281 Z M 23.195312 44.613281 "/>
<path style=" stroke:none;fill-rule:nonzero;fill:rgb(0%,0%,0%);fill-opacity:1;" d="M 35.9375 44.726562 C 35.671875 44.765625 35.257812 44.878906 34.964844 44.988281 C 34.636719 45.113281 34.539062 45.199219 34.554688 45.355469 C 34.574219 45.542969 35.300781 47.542969 35.515625 47.996094 C 35.589844 48.148438 35.707031 48.238281 35.84375 48.238281 C 35.960938 48.238281 36.1875 48.128906 36.261719 48.039062 C 36.363281 47.917969 36.355469 47.796875 36.21875 47.371094 C 36.144531 47.140625 36.113281 47.003906 36.125 46.960938 C 36.128906 46.941406 36.144531 46.933594 36.164062 46.933594 C 36.226562 46.933594 36.46875 47.023438 36.804688 47.171875 C 37.289062 47.390625 37.488281 47.453125 37.667969 47.453125 C 37.804688 47.453125 37.917969 47.402344 38.023438 47.296875 C 38.105469 47.214844 38.121094 47.160156 38.109375 47.007812 C 38.097656 46.898438 38.058594 46.820312 37.984375 46.769531 C 37.917969 46.71875 37.722656 46.625 37.503906 46.535156 C 37.3125 46.453125 37.203125 46.402344 37.148438 46.355469 C 37.109375 46.320312 37.105469 46.3125 37.109375 46.265625 C 37.113281 46.238281 37.15625 46.121094 37.203125 46.007812 C 37.277344 45.820312 37.285156 45.785156 37.292969 45.683594 C 37.304688 45.492188 37.222656 45.238281 37.101562 45.0625 C 36.96875 44.882812 36.789062 44.773438 36.539062 44.722656 C 36.414062 44.699219 36.09375 44.699219 35.9375 44.726562 Z M 36.261719 45.511719 C 36.375 45.570312 36.429688 45.730469 36.382812 45.851562 C 36.339844 45.953125 36.160156 46.0625 35.9375 46.117188 C 35.785156 46.160156 35.757812 46.144531 35.699219 46.015625 C 35.621094 45.855469 35.613281 45.75 35.671875 45.664062 C 35.707031 45.609375 35.90625 45.519531 36.046875 45.492188 C 36.121094 45.480469 36.214844 45.488281 36.261719 45.511719 Z M 36.261719 45.511719 "/>
<path style=" stroke:none;fill-rule:nonzero;fill:rgb(0%,0%,0%);fill-opacity:1;" d="M 32.730469 45.554688 C 32.703125 45.558594 32.617188 45.566406 32.53125 45.574219 C 32.039062 45.625 31.265625 45.722656 31.128906 45.753906 C 30.925781 45.796875 30.839844 45.902344 30.839844 46.117188 C 30.839844 46.285156 30.894531 46.71875 31.046875 47.714844 C 31.1875 48.664062 31.253906 48.890625 31.402344 48.957031 C 31.484375 48.996094 31.601562 48.992188 32.0625 48.9375 C 33.417969 48.777344 33.707031 48.6875 33.707031 48.433594 C 33.707031 48.359375 33.667969 48.210938 33.625 48.128906 C 33.589844 48.054688 33.519531 48 33.4375 47.980469 C 33.335938 47.957031 33 47.96875 32.675781 48.015625 C 32.53125 48.03125 32.335938 48.050781 32.246094 48.058594 L 32.078125 48.066406 L 32.066406 48.03125 C 32.050781 47.992188 31.992188 47.667969 31.996094 47.660156 C 32 47.660156 32.171875 47.632812 32.375 47.609375 C 32.785156 47.554688 32.976562 47.519531 33.089844 47.476562 C 33.175781 47.445312 33.25 47.367188 33.273438 47.289062 C 33.320312 47.117188 33.226562 46.855469 33.097656 46.800781 C 33.035156 46.777344 32.84375 46.785156 32.410156 46.832031 C 32.246094 46.851562 32.078125 46.867188 32.039062 46.867188 C 31.9375 46.867188 31.878906 46.835938 31.851562 46.777344 C 31.832031 46.730469 31.824219 46.601562 31.839844 46.558594 C 31.863281 46.503906 31.972656 46.476562 32.445312 46.417969 C 32.820312 46.367188 33.070312 46.3125 33.121094 46.265625 C 33.21875 46.171875 33.214844 45.863281 33.113281 45.695312 C 33.054688 45.601562 32.984375 45.5625 32.871094 45.554688 C 32.820312 45.550781 32.753906 45.550781 32.730469 45.554688 Z M 32.730469 45.554688 "/>
<path style=" stroke:none;fill-rule:nonzero;fill:rgb(0%,0%,0%);fill-opacity:1;" d="M 27.027344 45.625 C 26.929688 45.671875 26.859375 45.855469 26.859375 46.058594 C 26.859375 46.332031 26.980469 46.398438 27.617188 46.476562 C 27.96875 46.523438 28.082031 46.546875 28.082031 46.578125 C 28.082031 46.640625 27.945312 46.773438 27.277344 47.363281 C 26.800781 47.78125 26.554688 48.023438 26.496094 48.128906 C 26.460938 48.199219 26.457031 48.210938 26.457031 48.359375 C 26.457031 48.550781 26.476562 48.601562 26.570312 48.664062 C 26.699219 48.742188 26.929688 48.789062 27.597656 48.867188 C 28.488281 48.972656 28.878906 49 29.027344 48.960938 C 29.164062 48.925781 29.246094 48.8125 29.277344 48.621094 C 29.308594 48.449219 29.257812 48.273438 29.171875 48.238281 C 29.0625 48.195312 28.808594 48.152344 28.320312 48.09375 C 27.984375 48.054688 27.859375 48.035156 27.855469 48.011719 C 27.847656 47.988281 28.074219 47.753906 28.5 47.363281 C 28.726562 47.152344 28.945312 46.949219 28.988281 46.914062 C 29.121094 46.792969 29.304688 46.578125 29.347656 46.484375 C 29.390625 46.402344 29.394531 46.390625 29.394531 46.226562 C 29.394531 46.066406 29.390625 46.050781 29.351562 45.976562 C 29.273438 45.8125 29.148438 45.769531 28.632812 45.722656 C 28.460938 45.707031 28.15625 45.675781 27.957031 45.65625 C 27.730469 45.628906 27.503906 45.609375 27.339844 45.605469 C 27.109375 45.601562 27.078125 45.601562 27.027344 45.625 Z M 27.027344 45.625 "/>
</g>
</svg>
